<?xml version="1.0" encoding="UTF-8"?>
<svg width="24px" height="24px" viewBox="0 0 24 24" version="1.1" xmlns="http://www.w3.org/2000/svg" xmlns:xlink="http://www.w3.org/1999/xlink">
    <!-- Generator: Sketch 61.2 (89653) - https://sketch.com -->
    <title>标准煤</title>
    <desc>Created with Sketch.</desc>
    <g id="标准煤" stroke="none" stroke-width="1" fill="none" fill-rule="evenodd" opacity="0.3">
        <path d="M21.8102981,7.57496892 L21.8102981,18.3762336 C21.8048389,19.6106863 20.8040191,20.6092869 19.5695574,20.612006 C19.5643685,20.6581285 19.5652485,20.7045094 19.564589,20.7511207 C19.5618574,21.9106833 18.6225256,22.8500151 17.462963,22.8527467 L17.462963,22.8279048 C16.6077809,22.8298361 15.836291,22.3145746 15.5104832,21.5238854 C15.3890337,21.2291448 15.3384978,20.9179372 15.3543908,20.6123593 L10.2015537,20.6120371 C10.2039349,20.6581285 10.2048149,20.7045094 10.2041554,20.7511207 C10.2014238,21.9106833 9.26209202,22.8500151 8.10252937,22.8527467 L8.10252937,22.8279048 C7.24734734,22.8298361 6.47585743,22.3145746 6.15004961,21.5238854 C6.02860011,21.2291448 5.97806424,20.9179372 5.99395716,20.6123593 L5.24074074,20.612006 C4.00627899,20.6092869 3.00545924,19.6106863 3,18.3762336 L3,7.57496892 L21.8102981,7.57496892 Z M11.8693281,1.03193646 C13.5099657,0.823128039 15.1084586,1.65207673 15.8830172,3.11336095 C16.1154202,3.06765585 16.3516736,3.04436325 16.5885276,3.04380359 C18.2349049,3.04380359 19.5695574,4.3784561 19.5695574,6.0248334 C19.5796612,6.29344472 19.5461023,6.56191542 19.4701897,6.81977469 L19.4701897,6.81977469 L5.20596207,6.83964821 C5.20596207,5.18517668 6.53252031,4.05238534 8.18699186,4.05238534 C8.29272267,4.04185868 8.39923758,4.04185868 8.50496839,4.05238534 C8.88879972,2.44366968 10.2286905,1.24074487 11.8693281,1.03193646 Z" id="形状结合" fill="#FFFFFF" fill-rule="nonzero"></path>
    </g>
</svg>