<?xml version="1.0" encoding="UTF-8"?>
<svg width="24px" height="24px" viewBox="0 0 24 24" version="1.1" xmlns="http://www.w3.org/2000/svg" xmlns:xlink="http://www.w3.org/1999/xlink">
    <!-- Generator: Sketch 61.2 (89653) - https://sketch.com -->
    <title>储能容量</title>
    <desc>Created with Sketch.</desc>
    <g id="储能容量" stroke="none" stroke-width="1" fill="none" fill-rule="evenodd" opacity="0.301106771">
        <path d="M18,3 L21,3 L21,5 L22,5 L22,8 L21,8 L21,19 C21,19.5522847 20.5522847,20 20,20 L4,20 C3.44771525,20 3,19.5522847 3,19 L3,8 L2,8 L2,5 L3,5 L3,3 L6,3 L6,4 L18,4 L18,3 Z M8,11.5 C7.75454011,11.5 7.55039163,11.6768752 7.50805567,11.9101244 L7.5,12 L7.499,13 L6.5,13 C6.22385763,13 6,13.2238576 6,13.5 C6,13.7454599 6.17687516,13.9496084 6.41012437,13.9919443 L6.5,14 L7.499,14 L7.5,15 C7.5,15.2761424 7.72385763,15.5 8,15.5 C8.24545989,15.5 8.44960837,15.3231248 8.49194433,15.0898756 L8.5,15 L8.499,14 L9.5,14 C9.77614237,14 10,13.7761424 10,13.5 C10,13.2545401 9.82312484,13.0503916 9.58987563,13.0080557 L9.5,13 L8.499,13 L8.5,12 C8.5,11.7238576 8.27614237,11.5 8,11.5 Z M17.5,13 L14.5,13 C14.2238576,13 14,13.2238576 14,13.5 C14,13.7454599 14.1768752,13.9496084 14.4101244,13.9919443 L14.5,14 L17.5,14 C17.7761424,14 18,13.7761424 18,13.5 C18,13.2238576 17.7761424,13 17.5,13 Z M4.5,4 C4.22385763,4 4,4.22385763 4,4.5 C4,4.77614237 4.22385763,5 4.5,5 C4.77614237,5 5,4.77614237 5,4.5 C5,4.22385763 4.77614237,4 4.5,4 Z M19.5,4 C19.2238576,4 19,4.22385763 19,4.5 C19,4.77614237 19.2238576,5 19.5,5 C19.7761424,5 20,4.77614237 20,4.5 C20,4.22385763 19.7761424,4 19.5,4 Z" id="形状结合" fill="#FFFFFF"></path>
    </g>
</svg>