<?xml version="1.0" encoding="UTF-8"?>
<svg width="24px" height="24px" viewBox="0 0 24 24" version="1.1" xmlns="http://www.w3.org/2000/svg" xmlns:xlink="http://www.w3.org/1999/xlink">
    <!-- Generator: Sketch 61.2 (89653) - https://sketch.com -->
    <title>电站</title>
    <desc>Created with Sketch.</desc>
    <g id="电站" stroke="none" stroke-width="1" fill="none" fill-rule="evenodd" opacity="0.3">
        <path d="M11.9570908,1 C12.5896985,1 13.1276855,1.2122509 13.5151802,1.61609111 L13.5151802,1.61609111 L22.6798824,11.1664425 C23.0060989,11.5073588 23.096214,12.0924575 22.8889493,12.5254118 L22.8889493,12.5254118 L22.8592114,12.6033623 C22.755579,12.9245562 22.3653808,13.2523242 21.8174812,13.2523242 L21.8174812,13.2523242 L20.111603,13.2523242 L20.111603,20.7449688 C20.0566328,21.9902993 19.0671694,23.0000362 17.898377,23.0000362 L17.898377,23.0000362 L6.08158852,23.0000362 C5.50925665,23.006511 4.95852771,22.7724168 4.55388791,22.3505316 C4.14924811,21.9286464 3.92485965,21.3545884 3.93144307,20.7581171 L3.93144307,20.7581171 L3.93144307,13.2523242 L2.22646604,13.2523242 C1.75336194,13.2523242 1.27304865,12.9301912 1.10994038,12.503811 L1.10994038,12.503811 L1.09011507,12.4587312 C1.04055178,12.3535449 1.00991266,12.2380278 1,12.1131191 L1,12.1131191 L1,11.9243473 C1.02537299,11.6147659 1.15310026,11.3239708 1.36136141,11.1016402 L1.36136141,11.1016402 L10.4620818,1.68371087 L10.4891164,1.65365764 C10.8324548,1.24418245 11.3821567,1 11.9570908,1 Z M13.5118967,8.85715577 L7.82759743,13.5751814 L11.8417906,13.5751814 L10.2112291,17.5000271 L16.1724387,12.4947391 L12.4085985,12.4947391 L13.5118967,8.85715577 Z" id="形状结合" fill="#FFFFFF" fill-rule="nonzero"></path>
    </g>
</svg>