<?xml version="1.0" encoding="UTF-8"?>
<svg width="24px" height="24px" viewBox="0 0 24 24" version="1.1" xmlns="http://www.w3.org/2000/svg" xmlns:xlink="http://www.w3.org/1999/xlink">
    <!-- Generator: Sketch 61.2 (89653) - https://sketch.com -->
    <title>4</title>
    <desc>Created with Sketch.</desc>
    <defs>
        <path d="M9.56521739,0 L19.1304348,8 L16.2608696,8 L16.2608696,20 L2.86956522,20 L2.86956522,8 L0,8 L9.56521739,0 Z M2.72683406,7 L3.82608696,7 L3.82608696,19 L15.3043478,19 L15.3043478,7 L16.4036007,7 L9.56521739,1.28062485 L2.72683406,7 Z" id="path-1"></path>
        <filter x="-7.8%" y="-7.5%" width="115.7%" height="115.0%" filterUnits="objectBoundingBox" id="filter-2">
            <feOffset dx="0" dy="0" in="SourceAlpha" result="shadowOffsetOuter1"></feOffset>
            <feGaussianBlur stdDeviation="0.5" in="shadowOffsetOuter1" result="shadowBlurOuter1"></feGaussianBlur>
            <feColorMatrix values="0 0 0 0 0.0676187951   0 0 0 0 0.290865653   0 0 0 0 0.751670063  0 0 0 1 0" type="matrix" in="shadowBlurOuter1"></feColorMatrix>
        </filter>
    </defs>
    <g id="4" stroke="none" stroke-width="1" fill="none" fill-rule="evenodd">
        <g id="电站统计" transform="translate(1.000000, 1.000000)">
            <path d="M12.4347826,2 L22,10 L19.1295652,10 L19.1304348,22 L5.73913043,22 L5.73856522,10 L2.86956522,10 L12.4347826,2 Z" id="形状结合" fill="#1E5BD9" opacity="0.452404204"></path>
            <g id="形状结合" fill-rule="nonzero">
                <use fill="black" fill-opacity="1" filter="url(#filter-2)" xlink:href="#path-1"></use>
                <use fill="#105EFF" xlink:href="#path-1"></use>
            </g>
            <polygon id="路径-6" fill="#105EFF" fill-rule="nonzero" points="11.2565646 8 6.69565217 11.8212046 9.91652127 11.8212046 8.60820725 15 13.3913043 10.946137 10.371311 10.946137"></polygon>
        </g>
    </g>
</svg>