<?xml version="1.0" encoding="UTF-8"?>
<svg width="24px" height="24px" viewBox="0 0 24 24" version="1.1" xmlns="http://www.w3.org/2000/svg" xmlns:xlink="http://www.w3.org/1999/xlink">
    <!-- Generator: Sketch 61.2 (89653) - https://sketch.com -->
    <title>二氧化碳</title>
    <desc>Created with Sketch.</desc>
    <g id="二氧化碳" stroke="none" stroke-width="1" fill="none" fill-rule="evenodd" opacity="0.3">
        <g transform="translate(1.000000, 5.000000)" fill="#FFFFFF" fill-rule="nonzero">
            <path d="M18.6208983,5.33685338 C18.2201365,3.55483488 16.6291321,2.22325528 14.7261826,2.22325528 C14.2208815,2.22325528 13.7376591,2.31809333 13.2927399,2.4893705 C12.2802979,1.00374179 10.5752203,0.0279302802 8.6419962,0.0279302802 C5.59363063,0.0279302802 3.11379151,2.45324172 3.02196418,5.47919406 C1.26185715,6.13168647 0.00705117188,7.82539016 0.00705117188,9.81280743 C0.00705117188,12.3016787 1.97506594,14.3299081 4.43951691,14.4287605 L4.43951691,14.4334439 L17.3187569,14.4334439 C19.8818929,14.4334439 21.9603012,12.3552029 21.9603012,9.79189957 C21.9603012,7.6807078 20.5502753,5.90002742 18.6208983,5.33685338 L18.6208983,5.33685338 Z M9.07537424,10.6641754 C8.79086013,10.7847719 8.46603564,10.8451538 8.10123537,10.8451538 C7.42850415,10.8451538 6.87770756,10.6318937 6.44901285,10.2052061 C6.02031814,9.77835129 5.80605443,9.23173628 5.80605443,8.56452473 C5.80605443,8.13298655 5.90356869,7.74945282 6.09893172,7.41392355 C6.2939602,7.07856152 6.57362371,6.80876652 6.93758766,6.60470585 C7.30155161,6.40064518 7.69328126,6.29861482 8.11294376,6.29861482 C8.47004996,6.29861482 8.81377513,6.37405037 9.1444538,6.52475419 C9.47302159,6.67409525 9.76479458,6.89375291 9.99916702,7.16821439 L9.42294648,7.71750562 C9.03088232,7.30319551 8.58997743,7.09612409 8.10006452,7.09612412 C7.68642348,7.09612412 7.33801495,7.23746123 7.05483895,7.52030273 C6.77166294,7.80314423 6.6299913,8.15155276 6.62999127,8.56603009 C6.62999127,8.85472577 6.69271483,9.11097249 6.818162,9.33493747 C6.94360915,9.55873516 7.12107504,9.73452844 7.35039241,9.86214998 C7.57970978,9.98977156 7.8346184,10.053666 8.11478366,10.053666 C8.35380228,10.053666 8.57224758,10.0088395 8.77028681,9.91952115 C8.96832605,9.83020278 9.18576775,9.66779053 9.42294648,9.43194991 L9.98160441,10.014861 C9.66179782,10.3271407 9.3597211,10.5434116 9.07537424,10.6641754 L9.07537424,10.6641754 Z M13.7500366,10.1888143 C13.3151532,10.6262067 12.7876061,10.8451538 12.1672282,10.8451538 C11.517412,10.8451538 10.9774875,10.6203525 10.5477892,10.1712517 C10.1179236,9.7219837 9.90299086,9.18841519 9.90299086,8.57054619 C9.90299086,8.15657062 10.0030141,7.77604763 10.2032277,7.42880994 C10.4034413,7.08157224 10.6789232,6.80642484 11.0291717,6.60336774 C11.3725315,6.4022421 11.7636161,6.29704785 12.1615412,6.29876097 C12.7740578,6.29876097 13.300434,6.52040537 13.7413389,6.96381919 C14.1820766,7.40723301 14.4021945,7.94765931 14.4021945,8.58526533 C14.4020272,9.21701714 14.1847528,9.75142197 13.7500366,10.1888143 L13.7500366,10.1888143 Z M15.9077275,11.1059166 L14.6947372,11.1059166 L14.6947372,10.9465151 L15.2363343,10.3942131 C15.3669666,10.261741 15.4542779,10.1551945 15.4974317,10.0745738 C15.54092,9.99428766 15.5624969,9.92136104 15.5624969,9.85629577 C15.5624969,9.78872158 15.5399164,9.73302305 15.4952572,9.68903292 C15.4504308,9.64487554 15.3927251,9.62279683 15.3221402,9.62279683 C15.2505517,9.62279683 15.1911734,9.64939161 15.143838,9.70274849 C15.0961681,9.7557708 15.0705768,9.82802838 15.0673988,9.9193539 L14.7427416,9.9193539 C14.751272,9.73051412 14.8106504,9.58181744 14.9205421,9.47343111 C15.030601,9.36537932 15.1714364,9.31101887 15.3438844,9.31101887 C15.4500963,9.31101887 15.5437635,9.33359936 15.6252205,9.37825853 C15.7066775,9.4229177 15.7715755,9.48764843 15.8205835,9.57228345 C15.869257,9.65675118 15.8938446,9.74255705 15.8938446,9.82986824 C15.8938446,9.93390575 15.8640719,10.0456373 15.8050281,10.1655648 C15.7459843,10.2854923 15.6377652,10.4269966 15.4807054,10.5905797 L15.2843388,10.7974839 L15.9082292,10.7974839 L15.9082292,11.1059166 L15.9077275,11.1059166 Z" id="形状"></path>
            <path d="M12.152509,7.10498905 C11.7517472,7.10498905 11.4148798,7.24431901 11.1420741,7.52281166 C10.8691012,7.80147159 10.7326147,8.15556704 10.7326147,8.58526533 C10.7326147,9.06380436 10.9043936,9.44248748 11.248286,9.72114741 C11.5152375,9.93892364 11.8216631,10.0478118 12.1672282,10.0478118 C12.5579542,10.0478118 12.8908073,9.90647465 13.1659547,9.62413494 C13.4407676,9.34162797 13.5782576,8.9933867 13.5782576,8.57941112 C13.5782576,8.16744269 13.439764,7.81869963 13.1631112,7.53334923 C12.8859567,7.24783155 12.5490893,7.10498905 12.152509,7.10498905 L12.152509,7.10498905 Z" id="路径"></path>
        </g>
    </g>
</svg>