<?xml version="1.0" encoding="UTF-8"?>
<svg width="24px" height="24px" viewBox="0 0 24 24" version="1.1" xmlns="http://www.w3.org/2000/svg" xmlns:xlink="http://www.w3.org/1999/xlink">
    <!-- Generator: Sketch 61.2 (89653) - https://sketch.com -->
    <title>8</title>
    <desc>Created with Sketch.</desc>
    <defs>
        <path d="M10,0 C15.4292399,0 19.8479317,4.32667079 19.9961582,9.72009516 L20,10 L19.991,10 C19.9923706,10.2537607 19.8154954,10.4579092 19.5822462,10.5002451 L19.4923706,10.5083008 C19.2162282,10.5083008 18.9923706,10.2844432 18.9923706,10.0083008 C18.9923706,9.98170929 18.9944464,9.95560264 18.9984449,9.93013403 L19,10 C19,5.02943725 14.9705627,1 10,1 C5.02943725,1 1,5.02943725 1,10 C1,14.8818027 4.88681368,18.8557914 9.73463775,18.9961629 L10,19 C10.2774546,19.0007172 10.5013123,19.2245748 10.5013123,19.5007172 C10.5013123,19.7461771 10.3244371,19.9503255 10.0911879,19.9926615 L10.0013123,20.0007172 L10,20 L9.72009516,19.9961582 C4.32667079,19.8479317 0,15.4292399 0,10 C0,4.4771525 4.4771525,0 10,0 Z M14.3262939,17.961731 C14.6024363,17.961731 14.8262939,18.1855886 14.8262939,18.461731 C14.8262939,18.7378733 14.6024363,18.961731 14.3262939,18.961731 C14.0501516,18.961731 13.8262939,18.7378733 13.8262939,18.461731 C13.8262939,18.1855886 14.0501516,17.961731 14.3262939,17.961731 Z M16.3304443,16.5979004 C16.6065867,16.5979004 16.8304443,16.821758 16.8304443,17.0979004 C16.8304443,17.3740428 16.6065867,17.5979004 16.3304443,17.5979004 C16.054302,17.5979004 15.8304443,17.3740428 15.8304443,17.0979004 C15.8304443,16.821758 16.054302,16.5979004 16.3304443,16.5979004 Z M17.6516724,15.1376343 C17.9278147,15.1376343 18.1516724,15.3614919 18.1516724,15.6376343 C18.1516724,15.9137767 17.9278147,16.1376343 17.6516724,16.1376343 C17.37553,16.1376343 17.1516724,15.9137767 17.1516724,15.6376343 C17.1516724,15.3614919 17.37553,15.1376343 17.6516724,15.1376343 Z M18.6394653,13.4801636 C18.9156077,13.4801636 19.1394653,13.7040212 19.1394653,13.9801636 C19.1394653,14.2563059 18.9156077,14.4801636 18.6394653,14.4801636 C18.363323,14.4801636 18.1394653,14.2563059 18.1394653,13.9801636 C18.1394653,13.7040212 18.363323,13.4801636 18.6394653,13.4801636 Z M19.2332764,11.7167969 C19.5094187,11.7167969 19.7332764,11.9406545 19.7332764,12.2167969 C19.7332764,12.4929392 19.5094187,12.7167969 19.2332764,12.7167969 C18.957134,12.7167969 18.7332764,12.4929392 18.7332764,12.2167969 C18.7332764,11.9406545 18.957134,11.7167969 19.2332764,11.7167969 Z" id="path-1"></path>
        <filter x="-7.5%" y="-7.5%" width="115.0%" height="115.0%" filterUnits="objectBoundingBox" id="filter-2">
            <feOffset dx="0" dy="0" in="SourceAlpha" result="shadowOffsetOuter1"></feOffset>
            <feGaussianBlur stdDeviation="0.5" in="shadowOffsetOuter1" result="shadowBlurOuter1"></feGaussianBlur>
            <feColorMatrix values="0 0 0 0 0.0676187951   0 0 0 0 0.290865653   0 0 0 0 0.751670063  0 0 0 1 0" type="matrix" in="shadowBlurOuter1"></feColorMatrix>
        </filter>
    </defs>
    <g id="8" stroke="none" stroke-width="1" fill="none" fill-rule="evenodd">
        <g id="发电量" transform="translate(1.000000, 1.000000)">
            <circle id="椭圆形" fill="#1E5BD9" opacity="0.452404204" cx="12" cy="12" r="10"></circle>
            <g id="形状结合" fill-rule="nonzero">
                <use fill="black" fill-opacity="1" filter="url(#filter-2)" xlink:href="#path-1"></use>
                <use fill="#105EFF" xlink:href="#path-1"></use>
            </g>
        </g>
    </g>
</svg>