<?xml version="1.0" encoding="UTF-8"?>
<svg width="24px" height="24px" viewBox="0 0 24 24" version="1.1" xmlns="http://www.w3.org/2000/svg" xmlns:xlink="http://www.w3.org/1999/xlink">
    <!-- Generator: Sketch 61.2 (89653) - https://sketch.com -->
    <title>1</title>
    <desc>Created with Sketch.</desc>
    <defs>
        <path d="M7.13800038,0 C8.0277113,0 9.3832001,0.9176 9.55261081,1.2304 C9.61619061,1.293 9.82805556,1.3138 10.166877,1.3138 C10.8658485,1.3138 12.0096755,1.2096 12.8993864,1.2096 C13.5347781,1.2096 14.0430102,1.2514 14.1912954,1.4182 C14.4131137,1.6662 14.0639327,2.7082 13.6371558,3.7318 C14.4378956,3.2922 15.3930145,2.8988 16.2459589,2.8988 C16.5849834,2.8988 16.8813506,3.17 16.8813506,3.5246 C16.8813506,3.82787273 16.6538782,4.09676529 16.3419334,4.14314846 L16.2459589,4.1502 C15.6171781,4.1502 14.8030619,4.5148281 14.093731,4.92582735 L13.8845686,5.0502 C16.8429589,5.9516 19.017063,8.6774 19,11.8874 L19,12.8468 C19,16.7674 15.7379299,20 11.7348401,20 L7.26515998,20 C3.28319579,20 4.97379915e-14,16.7884 4.97379915e-14,12.8468 L4.97379915e-14,11.8874 C4.97379915e-14,8.2234 2.83691842,5.1902 6.43516938,4.781 L5.93076319,3.89707134 C5.30920596,2.78489414 4.69098624,1.57929565 4.74471863,1.2722 C4.85054955,0.6674 6.24828946,0 7.13800038,0 Z M7.13800038,1 C6.87815588,1 6.460098,1.11678492 6.10288171,1.29954745 C5.99252089,1.35601134 5.89573897,1.41484238 5.81864767,1.47057692 L5.93546955,1.74082653 C5.98098211,1.84060775 6.03292824,1.94980475 6.09089286,2.06757082 L6.31202965,2.50267113 L6.60465528,3.04949063 C6.76120817,3.33584004 6.93230462,3.64035228 7.11427015,3.95741728 L8.06886277,5.60165882 L6.54816299,5.77459571 C3.41489757,6.13091667 1,8.77175613 1,11.8874 L1,12.8468 C1,16.224916 3.82422947,19 7.26515998,19 L11.7348401,19 C15.1813517,19 17.9998991,16.2192656 17.9998991,12.8468 L17.9999134,11.882053 C18.0143418,9.18364476 16.1976885,6.80037955 13.593105,6.00678194 L13.7384613,5.52972342 L13.5653049,4.91203151 L11.6152859,5.98257694 L12.7141675,3.34697191 C12.8606471,2.99564897 12.9822898,2.67868985 13.0741162,2.40710146 L13.1373178,2.21208916 L12.8993864,2.2096 L12.5527494,2.21441708 C12.428187,2.21762823 12.2933939,2.2224446 12.1447281,2.22886549 L10.6558021,2.30330806 L10.2816724,2.31327989 L9.84705778,2.30976951 C9.42098143,2.29596947 9.1910828,2.23911718 8.94462803,2.02911908 L8.74448783,1.83808961 L8.67329221,1.70663398 C8.69634602,1.74920055 8.52096938,1.61572174 8.29604179,1.47296937 L8.12038153,1.3667721 C7.71799988,1.13751665 7.33252258,1 7.13800038,1 Z M10.8871772,8.5088 C11.1414964,8.2586 11.5863518,8.2586 11.8404679,8.5088 C12.094584,8.7592 12.094584,9.1972 11.8404679,9.4472 L11.8404679,9.4472 L10.6541867,10.6152 L11.3533613,10.6152 C11.7344339,10.6152 12.0310042,10.9072 12.0310042,11.2826 C12.0310042,11.6372 11.734637,11.95 11.3744869,11.95 L11.3744869,11.95 L10.1882057,11.95 L10.1882057,12.9302 L11.3533613,12.9302 C11.7344339,12.9302 12.0310042,13.2222 12.0310042,13.5974 C12.0310042,13.9728 11.734637,14.2648 11.3744869,14.2648 L11.3744869,14.2648 L10.1882057,14.2648 L10.1882057,15.7872 C10.1882057,16.1626 9.89183849,16.4546 9.51056283,16.4546 C9.12928717,16.4546 8.83271686,16.1418 8.83271686,15.7872 L8.83271686,15.7872 L8.83271686,14.2648 L7.64643564,14.2648 C7.26536311,14.2648 6.9687928,13.9728 6.9687928,13.5974 C6.9687928,13.222 7.26515998,12.93 7.64643564,12.93 L7.64643564,12.93 L8.83271686,12.93 L8.83271686,11.95 L7.64643564,11.95 C7.26536311,11.95 6.9687928,11.658 6.9687928,11.2826 C6.9687928,10.9072 7.26515998,10.6154 7.64643564,10.6154 L7.64643564,10.6154 L8.35312611,10.6154 L7.18045462,9.4474 C6.92633856,9.197 6.92633856,8.7592 7.18045462,8.5088 C7.43477381,8.2586 7.87942614,8.2586 8.13374534,8.5088 L8.13374534,8.5088 L9.51056283,9.8644 Z" id="path-1"></path>
        <filter x="-7.9%" y="-7.5%" width="115.8%" height="115.0%" filterUnits="objectBoundingBox" id="filter-2">
            <feOffset dx="0" dy="0" in="SourceAlpha" result="shadowOffsetOuter1"></feOffset>
            <feGaussianBlur stdDeviation="0.5" in="shadowOffsetOuter1" result="shadowBlurOuter1"></feGaussianBlur>
            <feColorMatrix values="0 0 0 0 0.0676187951   0 0 0 0 0.290865653   0 0 0 0 0.751670063  0 0 0 1 0" type="matrix" in="shadowBlurOuter1"></feColorMatrix>
        </filter>
    </defs>
    <g id="1" stroke="none" stroke-width="1" fill="none" fill-rule="evenodd">
        <g id="经济效益" transform="translate(1.000000, 1.000000)">
            <path d="M16.8845686,7.0502 C19.8429589,7.9516 22.017063,10.6774 21.9998991,13.8874 L21.9998991,14.8468 C21.9998991,18.7674 18.7379299,22 14.7348401,22 L10.26516,22 C6.28319579,22 3,18.7884 3,14.8468 L3,13.8874 C3,10.2234 5.83691842,7.1902 9.43516938,6.781 C8.70450952,5.524 7.67606058,3.6646 7.74471863,3.2722 C7.85054955,2.6674 9.24828946,2 10.1380004,2 C11.0277113,2 12.3832001,2.9176 12.5526108,3.2304 C12.6161906,3.293 12.8280556,3.3138 13.166877,3.3138 C13.8658485,3.3138 15.0096755,3.2096 15.8993864,3.2096 C16.5347781,3.2096 17.0430102,3.2514 17.1912954,3.4182 C17.4131137,3.6662 17.0639327,4.7082 16.6371558,5.7318 C17.4378956,5.2922 18.3930145,4.8988 19.2459589,4.8988 C19.5849834,4.8988 19.8813506,5.17 19.8813506,5.5246 C19.8813506,5.8582 19.606109,6.1502 19.2459589,6.1502 C18.5543,6.1502 17.6383853,6.5914 16.8843654,7.0502 L16.8845686,7.0502 Z" id="形状" fill="#1E5BD9" opacity="0.452404204"></path>
            <g id="形状结合" fill-rule="nonzero">
                <use fill="black" fill-opacity="1" filter="url(#filter-2)" xlink:href="#path-1"></use>
                <use fill="#105EFF" xlink:href="#path-1"></use>
            </g>
        </g>
    </g>
</svg>