<?xml version="1.0" encoding="UTF-8"?>
<svg width="24px" height="24px" viewBox="0 0 24 24" version="1.1" xmlns="http://www.w3.org/2000/svg" xmlns:xlink="http://www.w3.org/1999/xlink">
    <!-- Generator: Sketch 61.2 (89653) - https://sketch.com -->
    <title>5</title>
    <desc>Created with Sketch.</desc>
    <defs>
        <path d="M7.26798741,8.8817842e-15 C11.2829005,8.8817842e-15 14.5359748,3.01990106 14.5359748,6.70650655 C14.5359748,7.4131138 14.2797463,8.35261203 13.8227308,9.28868332 L13.6791887,9.57063555 C13.4965606,9.92164193 13.2920035,10.2484719 13.0695901,10.5556984 C12.9201729,10.7652007 12.7606229,10.9686234 12.5918366,11.1626212 L12.1997647,11.5877143 L12.0130136,11.8077499 C11.8001408,12.0655982 11.6128674,12.318113 11.4454062,12.571273 C11.2832969,12.8190816 11.1310878,13.0802828 10.9908692,13.3496431 C10.6977418,13.9233684 10.4719802,14.5297274 10.2520445,15.2324308 L10.2662998,15.2384093 C10.5520955,15.3782851 10.7471266,15.6546929 10.7471266,15.9739058 L10.7471266,19.3738907 C10.744866,19.8328991 10.3402098,20.2046751 9.83834564,20.2046751 L9.72635294,20.204381 L9.42916812,20.7488388 C9.35908799,20.8755334 9.24153423,20.952381 9.11267722,20.952381 L5.42329761,20.952381 C5.2944406,20.952381 5.17688683,20.8755334 5.10680671,20.7488388 L4.80917647,20.204381 L4.69762919,20.2046751 C4.1980257,20.2046751 3.79110883,19.8328991 3.79110883,19.3718138 L3.79110883,15.9739058 C3.79110883,15.6508156 3.99159884,15.3699162 4.28535736,15.23189 C3.93757502,13.9380011 3.25404943,12.6235207 2.4112634,11.6704245 L2.19735109,11.4399003 C0.843222179,10.0504135 2.66453526e-15,8.16661002 2.66453526e-15,6.70650655 C2.66453526e-15,3.01990106 3.2530743,8.8817842e-15 7.26798741,8.8817842e-15 Z M7.26798741,1.04761905 C3.82916135,1.04761905 1.05882353,3.6087137 1.05882353,6.70650655 C1.05882353,7.82723332 1.71630349,9.32815186 2.74806693,10.485762 L3.18302365,10.9523842 C4.13876396,12.0230748 4.91248771,13.488895 5.3086135,14.9626408 L5.53490165,15.8045228 L4.84993236,16.1263645 L4.84993236,19.1566507 L5.43935639,19.1550967 L5.84915869,19.9047619 L8.68652767,19.9047619 L9.09571914,19.1551021 L9.68830311,19.1566583 L9.68830311,16.1338509 L8.95741917,15.8273299 L9.24060795,14.9225305 C9.49603654,14.1064261 9.74174704,13.4723621 10.0495643,12.8699515 C10.2065409,12.5683991 10.3763169,12.2775126 10.5594619,11.9975726 C10.7489995,11.7110386 10.9586202,11.4288979 11.2021674,11.1340472 L11.4137374,10.8858072 L11.7877001,10.4810469 C11.9325807,10.3145943 12.0729915,10.1360527 12.2088022,9.94565873 C12.4076509,9.67098286 12.5836216,9.38743172 12.7428094,9.08100838 C13.2092073,8.20476268 13.4771513,7.30383267 13.4771513,6.70650655 C13.4771513,3.6087137 10.7068135,1.04761905 7.26798741,1.04761905 Z M8.18441437,4.19047619 C8.40011053,4.19047619 8.53809263,4.51196775 8.43658856,4.77802973 L7.86111765,6.28547619 L9.21122339,6.28571429 C9.46750341,6.28571429 9.61023167,6.72736689 9.48093482,7.04499266 L9.44285171,7.12148784 L6.9044591,11.3623566 C6.68730754,11.7273876 6.31537972,11.4210638 6.3560143,10.9644755 L6.36981015,10.8713087 L6.88211765,8.38047619 L5.58020045,8.38095238 C5.3803643,8.38095238 5.2407962,8.09937012 5.31375225,7.8377425 L6.25266495,4.44545225 C6.29548698,4.29246662 6.40174906,4.19047619 6.51911314,4.19047619 L8.18441437,4.19047619 Z" id="path-1"></path>
        <filter x="-10.3%" y="-7.2%" width="120.6%" height="114.3%" filterUnits="objectBoundingBox" id="filter-2">
            <feOffset dx="0" dy="0" in="SourceAlpha" result="shadowOffsetOuter1"></feOffset>
            <feGaussianBlur stdDeviation="0.5" in="shadowOffsetOuter1" result="shadowBlurOuter1"></feGaussianBlur>
            <feColorMatrix values="0 0 0 0 0.0676187951   0 0 0 0 0.290865653   0 0 0 0 0.751670063  0 0 0 1 0" type="matrix" in="shadowBlurOuter1"></feColorMatrix>
        </filter>
    </defs>
    <g id="5" stroke="none" stroke-width="1" fill="none" fill-rule="evenodd">
        <g id="节能减排" transform="translate(3.000000, 1.000000)">
            <path d="M10.444458,1.04761905 C14.4593711,1.04761905 17.7124454,4.06752011 17.7124454,7.7541256 C17.7124454,8.53127034 17.4025073,9.5901238 16.8563884,10.6162965 L16.8556593,10.6182546 C16.6792804,10.9572501 16.4824477,11.2736954 16.2688298,11.5717099 C16.0382721,11.8976303 15.7838448,12.2090157 15.5083124,12.4937502 C15.4622419,12.5413771 15.4165746,12.5901128 15.3713375,12.6399001 L15.4111045,12.5955213 C15.09078,12.9595865 14.8235821,13.3095123 14.5939952,13.6613281 C14.4487031,13.8868059 14.3114224,14.1228313 14.1838714,14.3656486 C13.8823505,14.9491661 13.6524139,15.564684 13.428515,16.2800498 L13.4427704,16.2860283 C13.7285661,16.4259041 13.9235972,16.702312 13.9235972,17.0215249 L13.9235972,20.4215098 C13.9213366,20.8805181 13.5166804,21.2522941 13.0148162,21.2522941 L12.9024706,21.251619 L12.6056387,21.7964578 C12.5355586,21.9231524 12.4180048,22 12.2891478,22 L8.59976819,22 C8.47091119,22 8.35335742,21.9231524 8.2832773,21.7964578 L7.98547059,21.251619 L7.87409978,21.2522941 C7.37449629,21.2522941 6.96757942,20.8805181 6.96757942,20.4194328 L6.96757942,17.0215249 C6.96757942,16.6984001 7.16811227,16.4174753 7.4619221,16.2794648 C7.08495648,14.8775976 6.31420209,13.4518496 5.37382168,12.4875194 C4.01969277,11.0980326 3.17647059,9.21422907 3.17647059,7.7541256 C3.17647059,4.06752011 6.42954489,1.04761905 10.444458,1.04761905 Z" id="形状结合" fill="#1E5BD9" opacity="0.452404204"></path>
            <g id="形状结合" fill-rule="nonzero">
                <use fill="black" fill-opacity="1" filter="url(#filter-2)" xlink:href="#path-1"></use>
                <use fill="#105EFF" xlink:href="#path-1"></use>
            </g>
        </g>
    </g>
</svg>