<?xml version="1.0" encoding="UTF-8"?>
<svg width="24px" height="24px" viewBox="0 0 24 24" version="1.1" xmlns="http://www.w3.org/2000/svg" xmlns:xlink="http://www.w3.org/1999/xlink">
    <!-- Generator: Sketch 61.2 (89653) - https://sketch.com -->
    <title>节约电量</title>
    <desc>Created with Sketch.</desc>
    <defs>
        <path d="M14.4261099,0.00109446267 L14.689982,0.00222468115 C16.1922992,0.0342175156 17.5346101,0.709323075 18.5687877,1.95522867 C21.0887428,4.98982272 19.8971784,8.3743973 17.9417079,10.5301584 C16.9024739,11.6779254 12.3468471,16.4006903 10.4367925,18.3778298 L10.4367925,18.3778298 L9.83700476,19 L9.3144636,18.4724309 C9.25232523,18.4097913 2.99413726,12.1128967 1.69864336,10.5542626 C0.299585524,8.87163258 -1.19721846,4.64569608 1.49264245,2.03793425 C2.61149884,0.9550294 3.84540262,0.434629031 5.17138696,0.491289567 C7.60413511,0.584356853 9.38933427,2.57696062 9.46420494,2.66176358 L9.46420494,2.66176358 L14.279,7.708 L14.4004048,7.77875758 L15.085222,7.07069698 L11.0087427,3.02057576 L9.94939178,1.99842423 L10.3490714,1.80494812 C11.2232136,0.889344949 12.8058969,-0.0518538163 14.689982,0.00222468115 Z" id="path-1"></path>
        <filter x="-7.5%" y="-7.9%" width="115.0%" height="113.6%" filterUnits="objectBoundingBox" id="filter-2">
            <feOffset dx="0" dy="0" in="SourceAlpha" result="shadowOffsetOuter1"></feOffset>
            <feMorphology radius="1" operator="erode" in="SourceAlpha" result="shadowInner"></feMorphology>
            <feOffset dx="0" dy="0" in="shadowInner" result="shadowInner"></feOffset>
            <feComposite in="shadowOffsetOuter1" in2="shadowInner" operator="out" result="shadowOffsetOuter1"></feComposite>
            <feGaussianBlur stdDeviation="0.5" in="shadowOffsetOuter1" result="shadowBlurOuter1"></feGaussianBlur>
            <feColorMatrix values="0 0 0 0 0.0676187951   0 0 0 0 0.290865653   0 0 0 0 0.751670063  0 0 0 1 0" type="matrix" in="shadowBlurOuter1"></feColorMatrix>
        </filter>
    </defs>
    <g id="节约电量" stroke="none" stroke-width="1" fill="none" fill-rule="evenodd">
        <g transform="translate(1.000000, 2.000000)" id="编组">
            <g transform="translate(1.000000, 1.000000)" fill="#1E5BD9" opacity="0.452404204">
                <path d="M15.1593707,0.000923593714 L15.4244811,0.00234176963 C17.0019141,0.0360184374 18.4113406,0.746655869 19.4972271,2.05813544 C22.1431799,5.25244497 20.8920373,8.81515505 18.8387933,11.0843772 C17.7475976,12.2925531 12.9641895,17.2638845 10.9586321,19.345084 L10.9586321,19.345084 L10.328855,20 L9.78018678,19.4446642 C9.71494149,19.3787277 3.14384413,12.7504176 1.78357553,11.1097501 C0.3145648,9.33856061 -1.25707938,4.89020641 1.56727457,2.14519394 C2.74207378,1.00529411 4.03767275,0.457504244 5.42995631,0.517146912 C7.98434186,0.615112477 9.85880098,2.71259013 9.93741518,2.8018564 L9.93741518,2.8018564 L14.994,8.115 L15.1448717,8.20242993 L15.8677343,7.45011554 L11.728,3.31 L11.722162,3.31755127 L10.588397,2.20605582 L10.592,2.202 L10.4465802,2.06082574 L10.9498876,1.81440474 C11.8829305,0.878476739 13.5046896,-0.0528997061 15.4244811,0.00234176963 Z" id="形状结合"></path>
            </g>
            <g fill-rule="nonzero">
                <g id="形状结合">
                    <use fill="black" fill-opacity="1" filter="url(#filter-2)" xlink:href="#path-1"></use>
                    <path stroke="#105EFF" stroke-width="1" d="M9.8321662,18.2845981 L9.47703574,18.6529808 L10.1922469,18.6481434 L9.8321662,18.2845981 Z M10.7668426,2.09240026 L10.2965712,1.63860979 L9.94939178,1.99842423 L10.1672477,2.44846732 L10.5669274,2.25499121 L10.7107182,2.1502185 C10.7292322,2.13082631 10.7479414,2.11155248 10.7668423,2.09239996 Z M14.4353541,0.501138644 C14.5152923,0.499442873 14.5954101,0.499716125 14.6756365,0.502018846 L14.689982,0.00222468115 L14.6921235,-0.497770732 L14.4282515,-0.498900951 L14.4239683,0.501089876 L14.4353541,0.501138644 Z M14.1103358,6.80692727 L14.3757225,7.08507074 L14.3828583,7.07769271 L14.1103358,6.80692727 Z" stroke-linejoin="square"></path>
                </g>
            </g>
        </g>
    </g>
</svg>