<?xml version="1.0" encoding="UTF-8"?>
<svg width="78px" height="27px" viewBox="0 0 78 27" version="1.1" xmlns="http://www.w3.org/2000/svg" xmlns:xlink="http://www.w3.org/1999/xlink">
    <!-- Generator: Sketch 61.2 (89653) - https://sketch.com -->
    <title>编组</title>
    <desc>Created with Sketch.</desc>
    <defs>
        <polygon id="path-1" points="0.0189740714 0.120415268 44.8220362 0.120415268 44.8220362 18.8506711 0.0189740714 18.8506711"></polygon>
        <polygon id="path-3" points="7.08648793e-05 0 44.8033278 0 44.8033278 18.7300797 7.08648793e-05 18.7300797"></polygon>
    </defs>
    <g id="页面-1" stroke="none" stroke-width="1" fill="none" fill-rule="evenodd">
        <g id="大屏" transform="translate(-817.000000, -41.000000)">
            <g id="编组-17" transform="translate(817.000000, 39.000000)">
                <g id="编组" transform="translate(0.000000, 2.000000)">
                    <polygon id="Fill-1" fill="#FFFFFF" points="24.1364293 5 21 20 25.7727898 20 27.4091503 12.5700571 32.0454764 20 35.3181974 20 36 16.7756052 28.6364636 5"></polygon>
                    <polygon id="Fill-2" fill="#FFFFFF" points="34.9999685 6 34 10.7886674 37.000063 16 39 6"></polygon>
                    <polygon id="Fill-3" fill="#FFFFFF" points="38.8276761 5 38 8.64491431 39.5173193 14.6730078 38.5517841 20 42.6896432 20 43.5173193 15.0933506 50 5 45.5862489 5 42.6896432 10.1868779 41.1724977 5"></polygon>
                    <polygon id="Fill-4" fill="#FFFFFF" points="47 20 51.4286529 20 52.4286829 15.2336416 59 5 54.2857786 5 51.2856886 10.1868779 50.2858386 5.84121562 47 10.7476883 48.00003 14.8131221"></polygon>
                    <g>
                        <g transform="translate(32.420682, 7.399329)">
                            <mask id="mask-2" fill="white">
                                <use xlink:href="#path-1"></use>
                            </mask>
                            <g id="Clip-6"></g>
                            <path d="M41.130348,0.120415268 C41.7823049,0.973276007 42.1653296,1.88392198 42.2429266,2.84442534 C42.807011,9.82181628 27.127625,16.7683767 7.22203473,18.3595847 C4.76231477,18.5561955 2.35361752,18.6615478 0.0189740714,18.6825126 C2.03206813,18.7926216 4.0961849,18.8507592 6.20069466,18.8507592 C27.530669,18.8507592 44.8220539,12.9742827 44.8220539,5.72558305 C44.8220539,3.72036493 43.4965263,1.82032299 41.130348,0.120415268" id="Fill-5" fill="#FFFFFF" mask="url(#mask-2)"></path>
                        </g>
                        <g>
                            <mask id="mask-4" fill="white">
                                <use xlink:href="#path-3"></use>
                            </mask>
                            <g id="Clip-8"></g>
                            <path d="M37.60009,0.491086409 C40.05981,0.294475671 42.4685072,0.189123322 44.8033278,0.168158557 C42.7900566,0.0580494966 40.7259398,-8.80872483e-05 38.6214301,-8.80872483e-05 C17.2914557,-8.80872483e-05 7.08648793e-05,5.87621225 7.08648793e-05,13.1249119 C7.08648793e-05,15.1303062 1.32559843,17.0303482 3.69177675,18.7300797 C3.03981986,17.8773951 2.65679519,16.9667492 2.57902099,16.0062458 C2.01511371,9.02867869 17.6944997,2.08247064 37.60009,0.491086409" id="Fill-7" fill="#FFFFFF" mask="url(#mask-4)"></path>
                        </g>
                    </g>
                </g>
            </g>
        </g>
    </g>
</svg>