<?xml version="1.0" encoding="UTF-8"?>
<svg width="457px" height="36px" viewBox="0 0 457 36" version="1.1" xmlns="http://www.w3.org/2000/svg" xmlns:xlink="http://www.w3.org/1999/xlink">
    <!-- Generator: Sketch 61.2 (89653) - https://sketch.com -->
    <title>编组 27</title>
    <desc>Created with Sketch.</desc>
    <defs>
        <linearGradient x1="100%" y1="50%" x2="0%" y2="50%" id="linearGradient-1">
            <stop stop-color="#94B3FF" stop-opacity="0.191843313" offset="0%"></stop>
            <stop stop-color="#94B3FF" offset="100%"></stop>
        </linearGradient>
    </defs>
    <g id="页面-1" stroke="none" stroke-width="1" fill="none" fill-rule="evenodd">
        <g id="大屏" transform="translate(-30.000000, -122.000000)">
            <g id="实时功率" transform="translate(30.000000, 122.000000)">
                <g id="编组-3">
                    <g id="编组-27">
                        <polygon id="矩形" fill="url(#linearGradient-1)" opacity="0.120768229" points="0 0 45.9028587 0 61.9692649 0 457 0 457 36 0 36"></polygon>
                        <path d="M438.297729,16 C439.126157,16 439.797729,16.6715729 439.797729,17.5 C439.797729,18.3284271 439.126157,19 438.297729,19 C437.634467,19 437.071749,18.5695176 436.873733,17.9727105 L378.320778,17.9723217 L364.625211,35.9726562 L0,35.9686389 L0,34.9702148 L364.13003,34.9719871 L377.825088,16.9723217 L436.893091,16.9725431 C437.106561,16.4043339 437.654927,16 438.297729,16 Z" id="形状结合" fill="#1F3773" fill-rule="nonzero" opacity="0.449939546"></path>
                    </g>
                </g>
            </g>
        </g>
    </g>
</svg>