<?xml version="1.0" encoding="UTF-8"?>
<svg width="24px" height="24px" viewBox="0 0 24 24" version="1.1" xmlns="http://www.w3.org/2000/svg" xmlns:xlink="http://www.w3.org/1999/xlink">
    <!-- Generator: Sketch 61.2 (89653) - https://sketch.com -->
    <title>发电机</title>
    <desc>Created with Sketch.</desc>
    <g id="发电机" stroke="none" stroke-width="1" fill="none" fill-rule="evenodd" opacity="0.301106771">
        <path d="M21,18 C21.5522847,18 22,18.4477153 22,19 L22,20 C22,20.5522847 21.5522847,21 21,21 L3,21 C2.44771525,21 2,20.5522847 2,20 L2,19 C2,18.4477153 2.44771525,18 3,18 L21,18 Z M17,4 C18.1045695,4 19,4.8954305 19,6 L19,16 L5,16 L5,6 C5,4.8954305 5.8954305,4 7,4 L17,4 Z M4,6 L4,15 L3,15 C2.44771525,15 2,14.5522847 2,14 L2,13 C1.44771525,13 1,12.5522847 1,12 L1,9 C1,8.44771525 1.44771525,8 2,8 L2,7 C2,6.44771525 2.44771525,6 3,6 L4,6 Z M21,6 C21.5522847,6 22,6.44771525 22,7 L22,7 L22,8 C22.5522847,8 23,8.44771525 23,9 L23,9 L23,12 C23,12.5522847 22.5522847,13 22,13 L22,13 L22,14 C22,14.5522847 21.5522847,15 21,15 L21,15 L20,15 L20,6 Z M13.6218226,6.32143568 L8.17242065,10.6885266 L12.0207318,10.6885266 L10.4575514,14.3214357 L16.1724207,9.68844941 L12.5641169,9.68844941 L13.6218226,6.32143568 Z" id="形状结合" fill="#FFFFFF"></path>
    </g>
</svg>