<?xml version="1.0" encoding="UTF-8"?>
<svg width="24px" height="24px" viewBox="0 0 24 24" version="1.1" xmlns="http://www.w3.org/2000/svg" xmlns:xlink="http://www.w3.org/1999/xlink">
    <!-- Generator: Sketch 61.2 (89653) - https://sketch.com -->
    <title>3</title>
    <desc>Created with Sketch.</desc>
    <defs>
        <path d="M10,0 C15.5228475,0 20,4.4771525 20,10 C20,15.5228475 15.5228475,20 10,20 C4.4771525,20 0,15.5228475 0,10 C0,4.4771525 4.4771525,0 10,0 Z M10,1 C5.02943725,1 1,5.02943725 1,10 C1,14.9705627 5.02943725,19 10,19 C14.9705627,19 19,14.9705627 19,10 C19,5.02943725 14.9705627,1 10,1 Z M10.050293,5.94262695 C11.4310048,5.94262695 12.550293,7.06191508 12.550293,8.44262695 L12.550293,10.942627 L13.050293,10.942627 C13.3264353,10.942627 13.550293,11.1664846 13.550293,11.442627 C13.550293,11.7187693 13.3264353,11.942627 13.050293,11.942627 L12.045293,11.942627 L12.0456543,13.4943848 C12.0456543,13.7705271 11.8217967,13.9943848 11.5456543,13.9943848 C11.2695119,13.9943848 11.0456543,13.7705271 11.0456543,13.4943848 L11.045293,11.942627 L9.07629297,11.942627 L9.07702637,13.4788818 C9.07702637,13.7550242 8.85316874,13.9788818 8.57702637,13.9788818 C8.30088399,13.9788818 8.07702637,13.7550242 8.07702637,13.4788818 L8.07629297,11.942627 L7.05029297,11.942627 C6.77415059,11.942627 6.55029297,11.7187693 6.55029297,11.442627 C6.55029297,11.1664846 6.77415059,10.942627 7.05029297,10.942627 L7.55029297,10.942627 L7.55029297,8.44262695 C7.55029297,7.06191508 8.66958109,5.94262695 10.050293,5.94262695 Z" id="path-1"></path>
        <filter x="-7.5%" y="-7.5%" width="115.0%" height="115.0%" filterUnits="objectBoundingBox" id="filter-2">
            <feOffset dx="0" dy="0" in="SourceAlpha" result="shadowOffsetOuter1"></feOffset>
            <feGaussianBlur stdDeviation="0.5" in="shadowOffsetOuter1" result="shadowBlurOuter1"></feGaussianBlur>
            <feColorMatrix values="0 0 0 0 0.0676187951   0 0 0 0 0.290865653   0 0 0 0 0.751670063  0 0 0 1 0" type="matrix" in="shadowBlurOuter1"></feColorMatrix>
        </filter>
    </defs>
    <g id="3" stroke="none" stroke-width="1" fill="none" fill-rule="evenodd">
        <g id="实时功率曲线" transform="translate(1.000000, 1.000000)">
            <g id="形状结合" fill-rule="nonzero">
                <use fill="black" fill-opacity="1" filter="url(#filter-2)" xlink:href="#path-1"></use>
                <use fill="#105EFF" xlink:href="#path-1"></use>
            </g>
            <circle id="椭圆形备份-9" fill="#1E5BD9" opacity="0.452404204" cx="12" cy="12" r="10"></circle>
        </g>
    </g>
</svg>