<?xml version="1.0" encoding="UTF-8"?>
<svg width="1860px" height="48px" viewBox="0 0 1860 48" version="1.1" xmlns="http://www.w3.org/2000/svg" xmlns:xlink="http://www.w3.org/1999/xlink">
    <!-- Generator: Sketch 61.2 (89653) - https://sketch.com -->
    <title>编组 28</title>
    <desc>Created with Sketch.</desc>
    <defs>
        <linearGradient x1="50%" y1="50%" x2="50%" y2="171.316636%" id="linearGradient-1">
            <stop stop-color="#FFFFFF" stop-opacity="0" offset="0%"></stop>
            <stop stop-color="#A5BEFF" offset="100%"></stop>
        </linearGradient>
        <linearGradient x1="13.1370641%" y1="0%" x2="84.7669308%" y2="0%" id="linearGradient-2">
            <stop stop-color="#024AFD" stop-opacity="0" offset="0%"></stop>
            <stop stop-color="#0049FF" offset="51.4385023%"></stop>
            <stop stop-color="#0C4DF4" stop-opacity="0" offset="100%"></stop>
        </linearGradient>
        <linearGradient x1="0%" y1="0%" x2="98.5544988%" y2="0%" id="linearGradient-3">
            <stop stop-color="#0941D0" offset="0%"></stop>
            <stop stop-color="#0941D0" stop-opacity="0.260243663" offset="100%"></stop>
        </linearGradient>
    </defs>
    <g id="页面-1" stroke="none" stroke-width="1" fill="none" fill-rule="evenodd">
        <g id="大屏" transform="translate(-30.000000, -48.000000)">
            <g id="编组-28" transform="translate(-0.000000, 0.000000)">
                <polygon id="路径-3" fill="url(#linearGradient-1)" opacity="0.364188058" points="1266.45932 0.397914301 1147.57099 95 762.977242 95 638 -5.06261699e-13"></polygon>
                <path d="M0,60 L708.916704,60 C710.925574,60 712.887876,60.6050358 714.54795,61.7362801 L759.794538,92.5692078 C762.118642,94.1529499 764.865864,95 767.678283,95 L1143.46891,95 C1146.38683,95 1149.23183,94.0882761 1151.60624,92.3922686 L1194.34769,61.8626653 C1196.04369,60.6512313 1198.07584,60 1200.16007,60 L1920.61557,60 L1920.61557,60" id="路径-2" stroke="url(#linearGradient-2)" stroke-width="2"></path>
                <path d="M1243.93673,78.5010222 C1243.71435,79.3631171 1242.93155,80 1242,80 C1240.89543,80 1240,79.1045695 1240,78 C1240,76.8954305 1240.89543,76 1242,76 C1242.93191,76 1243.71496,76.6373769 1243.93699,77.4999808 L1865.62079,77.5 L1887.14764,90.190202 C1887.40621,90.0682103 1887.69514,90 1888,90 C1889.10457,90 1890,90.8954305 1890,92 C1890,93.1045695 1889.10457,94 1888,94 C1886.89543,94 1886,93.1045695 1886,92 C1886,91.584245 1886.12686,91.1981194 1886.34398,90.87822 L1865.34796,78.5 Z" id="形状结合" fill="url(#linearGradient-3)" transform="translate(1565.000000, 85.000000) scale(-1, 1) translate(-1565.000000, -85.000000) "></path>
                <path d="M33.9367279,78.5010222 C33.7143512,79.3631171 32.9315516,80 32,80 C30.8954305,80 30,79.1045695 30,78 C30,76.8954305 30.8954305,76 32,76 C32.9319128,76 33.7149582,76.6373769 33.9369863,77.4999808 L655.620785,77.5 L677.14764,90.190202 C677.406209,90.0682103 677.695139,90 678,90 C679.104569,90 680,90.8954305 680,92 C680,93.1045695 679.104569,94 678,94 C676.895431,94 676,93.1045695 676,92 C676,91.584245 676.126859,91.1981194 676.34398,90.87822 L655.347965,78.5 Z" id="形状结合" fill="url(#linearGradient-3)"></path>
            </g>
        </g>
    </g>
</svg>