<?xml version="1.0" encoding="UTF-8"?>
<svg width="30px" height="40px" viewBox="0 0 30 40" version="1.1" xmlns="http://www.w3.org/2000/svg" xmlns:xlink="http://www.w3.org/1999/xlink">
    <!-- Generator: Sketch 61.2 (89653) - https://sketch.com -->
    <title>未运行</title>
    <desc>Created with Sketch.</desc>
    <g id="未运行" stroke="none" stroke-width="1" fill="none" fill-rule="evenodd">
        <g transform="translate(1.000000, 1.000000)">
            <ellipse id="椭圆形备份-10" fill="#000000" opacity="0.389857701" cx="14.5" cy="35" rx="10.5" ry="4"></ellipse>
            <g id="编组-12备份-2">
                <polygon id="路径-10" fill="#A9C0E1" opacity="0.647019159" points="14.5 35.8109131 16.9023437 8.09680176 4.61852778e-14 3.44947788"></polygon>
                <polygon id="路径-12" fill="#C7D5F3" opacity="0.712262835" points="14.5 35.8109131 16.9023438 8.09680176 28.170166 4.11462402"></polygon>
                <polygon id="路径-11" fill="#C9D5F8" opacity="0.796386719" points="-8.17124146e-14 3.44947788 16.9023438 8.09680176 28.170166 4.11462402 11.4005127 2.66453526e-15"></polygon>
                <path d="M11.4005127,0 L28.170166,4.11462402 L15.106,34.404 L15.1046753,34.4287109 L15.096,34.428 L14.5,35.8109131 L14.056,34.996 L14.0531168,34.9970298 L14.038,34.964 L13.9107666,34.7298584 L13.922,34.702 L-2.48689958e-13,3.44947788 L0.975296021,3.15228271 L0.976,3.154 L11.4005127,0 Z M1.262,3.796 L14.227,32.929 L16.579,8.007 L1.262,3.796 Z M26.988,4.532 L17.599,7.85 L15.398,31.292 L26.988,4.532 Z M11.4280917,1.03642802 L3.60484515,3.40352472 L16.8649413,7.04940734 L24.6792357,4.287746 L11.4280917,1.03642802 Z" id="形状结合" fill="#E3E9FF" fill-rule="nonzero" opacity="0.485188802"></path>
            </g>
        </g>
    </g>
</svg>